<?xml version="1.0" encoding="UTF-8"?>
<svg id="Layer_1" xmlns="http://www.w3.org/2000/svg" version="1.1" viewBox="0 0 792 612">
  <!-- Generator: Adobe Illustrator 29.8.1, SVG Export Plug-In . SVG Version: 2.1.1 Build 2)  -->
  <defs>
    <style>
      .st0 {
        fill: #008cff;
      }
    </style>
  </defs>
  <g>
    <path class="st0" d="M291.41,203.61c-38.46,0-68.58,29.16-68.58,66.4v.37c0,37.65,29.33,66.03,68.22,66.03s68.58-29.16,68.58-66.4v-.36c0-37.65-29.32-66.04-68.22-66.04M253.05,269.65c0-22.44,16.34-39.36,38-39.36s38.37,17.08,38.37,39.72v.37c0,22.43-16.35,39.34-38.01,39.34s-38.36-17.07-38.36-39.72v-.36Z"/>
    <path class="st0" d="M438.9,203.61c-38.47,0-68.59,29.16-68.59,66.4v.37c0,37.65,29.33,66.03,68.22,66.03s68.6-29.16,68.6-66.4v-.36c0-37.65-29.34-66.04-68.23-66.04M400.54,269.65c0-22.44,16.32-39.36,37.99-39.36s38.36,17.08,38.36,39.72v.37c0,22.43-16.33,39.34-37.99,39.34s-38.36-17.07-38.36-39.72v-.36Z"/>
    <path class="st0" d="M666,205.03c-16.08,0-29.26,6.28-40.2,19.19-7.48-12.4-20.11-19.19-35.92-19.19-16.6,0-26.95,7.84-34.16,16.19v-11.41c0-1.27-1.01-2.29-2.29-2.29h-27.39c-1.29,0-2.3,1.02-2.3,2.29v119.59c0,1.27,1.01,2.29,2.3,2.29h27.39c1.28,0,2.29-1.02,2.29-2.29v-67.41c0-16.72,9.17-27.51,23.3-27.51s21.93,9.44,21.93,26.6v68.32c0,1.27,1.04,2.29,2.3,2.29h27.41c1.27,0,2.31-1.02,2.31-2.29v-67.63c0-17.08,8.7-27.28,23.29-27.28,18.12,0,21.92,14.6,21.92,26.82v68.1c0,1.27,1.03,2.29,2.3,2.29h27.41c1.27,0,2.32-1.02,2.32-2.29v-76.45c0-30.01-16.52-47.93-44.2-47.93"/>
    <path class="st0" d="M179.03,258.45c.25.31.65.48,1.07.48s.79-.18,1.06-.48l42.43-48.58c.35-.43.43-1.02.22-1.5-.23-.51-.72-.82-1.29-.82h-36.68c-.4,0-.78.18-1.06.48l-24.08,27.6c-.46.52-.46,1.29,0,1.83l18.33,20.99Z"/>
    <path class="st0" d="M173.79,264.23l-49.03-56.17c-.28-.3-.65-.51-1.06-.51h-36.21c-.53,0-1.05.32-1.28.81-.22.5-.14,1.09.22,1.51l47.94,54.91-56.19,64.6c-.35.42-.43,1.01-.21,1.51.24.49.73.81,1.29.81h36.57c.4,0,.79-.21,1.06-.51l38.63-44.24c.09-.07.13-.11.17-.15l18.09-20.73c.44-.52.44-1.32,0-1.84"/>
    <path class="st0" d="M230.64,329.37l-49.65-56.88c-.27-.31-.65-.49-1.06-.49s-.79.18-1.06.49l-18.13,20.77c-.47.53-.47,1.31-.03,1.84l31.56,36.15c.27.31.66.47,1.06.47h36.24c.56,0,1.06-.35,1.28-.85.23-.49.16-1.1-.21-1.5"/>
  </g>
  <path d="M324.53,380.89l14.49,32.17h-4.67l-3.11-6.88h-13.55l-3.15,6.88h-4.54l14.53-32.17ZM329.44,402.09l-4.95-11.17h-.08l-4.95,11.17h9.99Z"/>
  <g>
    <path d="M579.99,406.61l4.42-.78c.53,2.54,2.99,4.34,5.85,4.34,3.27,0,5.61-2.29,5.61-5.24,0-2.05-1.15-3.97-3.97-4.95l-4.26-1.47c-4.21-1.47-6.18-4.58-6.18-7.98,0-4.46,3.72-8.02,8.63-8.02,3.64,0,6.63,1.92,7.94,4.79l-4.01,1.96c-.57-1.51-2.05-2.58-3.93-2.58-2.33,0-4.09,1.68-4.09,3.85,0,1.47.78,2.95,3.19,3.81l4.38,1.55c4.54,1.64,6.83,5.2,6.83,9.04,0,5.24-4.3,9.41-10.15,9.41-5.16,0-9.41-3.32-10.27-7.73Z"/>
    <path d="M603.4,404.07c0-5.89,4.09-10.35,9.58-10.35s9.54,4.46,9.54,10.31c0,.49-.04,1.02-.08,1.51h-14.77c.41,2.82,2.82,4.87,5.85,4.87,2.29,0,4.22-1.19,5.2-2.99l3.44,2c-1.76,2.99-4.91,4.91-8.68,4.91-5.73,0-10.07-4.54-10.07-10.27ZM618.21,402.15c-.25-2.7-2.33-4.67-5.2-4.67s-5.07,1.96-5.36,4.67h10.56Z"/>
    <path d="M627.25,394.21h3.97v2.5c.16-.25.37-.45.57-.65,1.27-1.27,3.07-2.05,5.12-2.05.45,0,.86.04,1.31.08v3.97c-.45-.04-.86-.08-1.35-.08-1.64,0-2.99.57-3.93,1.56-.94.94-1.51,2.21-1.51,4.5v9.82h-4.17v-19.64Z"/>
    <path d="M644.11,394.21l5.52,11.75h.08l5.52-11.75h4.5l-10.11,21.04-10.07-21.04h4.54Z"/>
    <path d="M662.41,388.36c0-1.55,1.31-2.82,2.86-2.82s2.82,1.27,2.82,2.82-1.27,2.87-2.82,2.87-2.86-1.35-2.86-2.87ZM663.18,394.21h4.17v19.64h-4.17v-19.64Z"/>
    <path d="M672.06,404.03c0-5.73,4.5-10.31,10.35-10.31,1.92,0,3.68.49,5.16,1.39v4.46c-1.23-1.19-2.95-1.88-4.91-1.88-3.56,0-6.26,2.74-6.26,6.34s2.7,6.34,6.26,6.34c1.96,0,3.68-.7,4.91-1.88v4.46c-1.47.9-3.23,1.39-5.16,1.39-5.85,0-10.35-4.58-10.35-10.31Z"/>
    <path d="M690.56,404.07c0-5.89,4.09-10.35,9.58-10.35s9.54,4.46,9.54,10.31c0,.49-.04,1.02-.08,1.51h-14.77c.41,2.82,2.82,4.87,5.85,4.87,2.29,0,4.22-1.19,5.2-2.99l3.44,2c-1.76,2.99-4.91,4.91-8.68,4.91-5.73,0-10.07-4.54-10.07-10.27ZM705.38,402.15c-.25-2.7-2.33-4.67-5.2-4.67s-5.07,1.96-5.36,4.67h10.56Z"/>
  </g>
  <path d="M555.67,414.56h11.97v-53.74h-11.97v53.74ZM531.66,404.87c-4.42,0-7.7-3.42-7.7-8.12s3.28-8.12,7.7-8.12,7.7,3.42,7.7,8.12-3.28,8.12-7.7,8.12ZM529.66,415.7c4.06,0,7.7-1.57,10.41-4.2v3.06h10.9v-35.63h-10.9v3.06c-2.71-2.64-6.34-4.2-10.41-4.2-10.19,0-18.03,8.34-18.03,18.96s7.84,18.96,18.03,18.96ZM407.86,404.87c-4.42,0-7.7-3.42-7.7-8.12s3.28-8.12,7.7-8.12,7.7,3.42,7.7,8.12-3.28,8.12-7.7,8.12ZM405.87,415.7c4.06,0,7.7-1.57,10.41-4.2v3.06h10.9v-35.63h-10.9v3.06c-2.71-2.64-6.34-4.2-10.41-4.2-10.19,0-18.03,8.34-18.03,18.96s7.84,18.96,18.03,18.96ZM488.4,385.27v-13.4h4.13c3.35,0,4.99.78,6.2,1.92s1.92,2.85,1.92,4.77-.71,3.63-1.92,4.77-2.85,1.92-6.2,1.92h-4.13ZM475.92,414.56h12.47v-18.24h5.92c6.41,0,10.9-1.92,14.04-5.13,3.21-3.28,5.13-7.7,5.13-12.61s-1.92-9.34-5.13-12.61c-3.14-3.21-7.63-5.13-14.04-5.13h-18.39v53.74ZM433.8,432.67h12.69l26.87-53.74h-12.69l-8.12,16.96h-.07l-9.19-16.96h-13.54l16.46,29.08-12.4,24.66ZM364.6,385.27v-13.4h4.13c3.35,0,4.99.78,6.2,1.92s1.92,2.85,1.92,4.77-.71,3.63-1.92,4.77-2.85,1.92-6.2,1.92h-4.13ZM352.13,414.56h12.47v-18.24h5.92c6.41,0,10.9-1.92,14.04-5.13,3.21-3.28,5.13-7.7,5.13-12.61s-1.92-9.34-5.13-12.61c-3.14-3.21-7.63-5.13-14.04-5.13h-18.39v53.74Z"/>
</svg>